<svg width="16" height="27" viewBox="0 0 16 27" fill="none" xmlns="http://www.w3.org/2000/svg">
<path fill-rule="evenodd" clip-rule="evenodd" d="M8 12.2791C10.3633 12.2791 12.2791 10.3633 12.2791 8C12.2791 5.63673 10.3633 3.72093 8 3.72093C5.63673 3.72093 3.72093 5.63673 3.72093 8C3.72093 10.3633 5.63673 12.2791 8 12.2791ZM16 8C16 11.7109 13.4734 14.8316 10.0466 15.7358V19.3488H11.5349C12.5625 19.3488 13.3954 20.1818 13.3954 21.2093C13.3954 22.2368 12.5625 23.0698 11.5349 23.0698H10.0466V24.5581C10.0466 25.5856 9.21367 26.4186 8.18616 26.4186C7.15866 26.4186 6.3257 25.5856 6.3257 24.5581V23.0698H4.83727C3.80977 23.0698 2.97681 22.2368 2.97681 21.2093C2.97681 20.1818 3.80977 19.3488 4.83727 19.3488H6.3257V15.8245C2.7112 15.0548 0 11.844 0 8C0 3.58172 3.58172 0 8 0C12.4183 0 16 3.58172 16 8Z" fill="#FF2E2E"/>
</svg>
