<svg width="23" height="23" viewBox="0 0 23 23" fill="none" xmlns="http://www.w3.org/2000/svg">
<path fill-rule="evenodd" clip-rule="evenodd" d="M5.29065 11.8676C6.96173 10.1965 9.67108 10.1965 11.3422 11.8676C13.0132 13.5386 13.0132 16.248 11.3422 17.9191C9.67108 19.5902 6.96173 19.5902 5.29065 17.9191C3.61957 16.248 3.61957 13.5386 5.29065 11.8676ZM12.3393 7.97609C9.27681 6.19236 5.28353 6.61249 2.65955 9.23647C-0.464643 12.3607 -0.464643 17.426 2.65955 20.5502C5.78375 23.6744 10.8491 23.6744 13.9733 20.5502C16.6914 17.832 17.0447 13.6445 15.0331 10.5445L19 6.57754L19 8.55866C19 9.58617 19.833 10.4191 20.8605 10.4191C21.888 10.4191 22.7209 9.58617 22.7209 8.55866L22.7209 1.86099C22.7209 0.833482 21.888 0.000523411 20.8605 0.000523498C20.8095 0.000523502 20.7591 0.00257016 20.7092 0.00658726C20.6593 0.00257826 20.6089 0.000534983 20.558 0.000534988L13.8603 0.000536226C12.8328 0.000536313 11.9999 0.833494 11.9999 1.861C11.9999 2.88851 12.8328 3.72147 13.8603 3.72147L16.5939 3.72147L12.3393 7.97609Z" fill="#FF2E2E"/>
</svg>
